<svg enable-background="new 0 0 512 512" viewBox="0 0 512 512" xmlns="http://www.w3.org/2000/svg"><path d="m494.643 412.121-75.959-75.959c-21.322-21.322-55.892-21.322-77.215 0l-11.884 11.884c-9.923 9.923-16.296 22.044-19.157 34.794-25.747.481-54.864-3.897-79.768-20.054-15.1-11.219-29.608-23.71-43.219-37.321-11.549-11.549-22.229-23.651-31.966-36.134-19.409-26.076-24.531-57.721-24.013-85.456 12.75-2.861 24.871-9.233 34.794-19.157l11.884-11.884c21.322-21.322 21.322-55.892 0-77.215l-75.959-75.959c-14.215-14.215-37.262-14.215-51.476 0l-13.041 13.044c-16.718 16.718-25.276 38.492-25.721 60.401-4.281 46.225 4.572 97.111 25.603 147.158 13.886 33.044 32.951 65.309 56.17 95.299.293.392.571.789.868 1.18l.034-.026c11.751 15.08 24.548 29.581 38.271 43.304 14.305 14.305 29.309 27.497 44.827 39.503l-.152.201c2.653 2.013 5.333 3.93 8.033 5.761 66.261 49.01 141.154 76.545 210.847 76.541 4.071-.001 8.129-.117 12.165-.306 25.959 3.191 53.065-5.152 72.992-25.079l13.043-13.043c14.214-14.215 14.214-37.262-.001-51.477z" fill="#132028"/></svg>